<?xml version="1.0" encoding="UTF-8" standalone="no"?>
<!DOCTYPE svg PUBLIC "-//W3C//DTD SVG 1.1//EN" "http://www.w3.org/Graphics/SVG/1.1/DTD/svg11.dtd">
<!-- Created with Vectornator (http://vectornator.io/) -->
<svg height="595.35pt" stroke-miterlimit="10" style="fill-rule:nonzero;clip-rule:evenodd;stroke-linecap:round;stroke-linejoin:round;" version="1.1" viewBox="0 0 841.995 595.35" width="841.995pt" xml:space="preserve" xmlns="http://www.w3.org/2000/svg" xmlns:xlink="http://www.w3.org/1999/xlink">
<defs/>
<g id="Calque-1">
<path d="M209.011 347.378C209.011 338.541 216.174 331.378 225.011 331.378L283.011 331.378C291.847 331.378 299.011 338.541 299.011 347.378L299.011 355.378C299.011 364.215 291.847 371.378 283.011 371.378L225.011 371.378C216.174 371.378 209.011 364.215 209.011 355.378L209.011 347.378Z" fill="#fe6365" fill-rule="nonzero" opacity="1" stroke="none"/>
<path d="M308.453 347.378C308.453 338.541 315.616 331.378 324.453 331.378L382.453 331.378C391.29 331.378 398.453 338.541 398.453 347.378L398.453 355.378C398.453 364.215 391.29 371.378 382.453 371.378L324.453 371.378C315.616 371.378 308.453 364.215 308.453 355.378L308.453 347.378Z" fill="#fe6365" fill-rule="nonzero" opacity="1" stroke="none"/>
<path d="M308.453 301.022C308.453 292.186 315.616 285.022 324.453 285.022L382.453 285.022C391.29 285.022 398.453 292.186 398.453 301.022L398.453 309.022C398.453 317.859 391.29 325.022 382.453 325.022L324.453 325.022C315.616 325.022 308.453 317.859 308.453 309.022L308.453 301.022Z" fill="#fe6365" fill-rule="nonzero" opacity="1" stroke="none"/>
<path d="M407.299 301.022C407.299 292.186 414.462 285.022 423.299 285.022L481.299 285.022C490.135 285.022 497.299 292.186 497.299 301.022L497.299 309.022C497.299 317.859 490.135 325.022 481.299 325.022L423.299 325.022C414.462 325.022 407.299 317.859 407.299 309.022L407.299 301.022Z" fill="#fe6365" fill-rule="nonzero" opacity="1" stroke="none"/>
<path d="M407.299 254.66C407.299 245.823 414.462 238.66 423.299 238.66L481.299 238.66C490.135 238.66 497.299 245.823 497.299 254.66L497.299 262.66C497.299 271.497 490.135 278.66 481.299 278.66L423.299 278.66C414.462 278.66 407.299 271.497 407.299 262.66L407.299 254.66Z" fill="#fe6365" fill-rule="nonzero" opacity="1" stroke="none"/>
<path d="M407.299 347.378C407.299 338.541 414.462 331.378 423.299 331.378L481.299 331.378C490.135 331.378 497.299 338.541 497.299 347.378L497.299 355.378C497.299 364.215 490.135 371.378 481.299 371.378L423.299 371.378C414.462 371.378 407.299 364.215 407.299 355.378L407.299 347.378Z" fill="#fe6365" fill-rule="nonzero" opacity="1" stroke="none"/>
</g>
</svg>
